<mxfile host="65bd71144e">
    <diagram name="Page-1" id="QhC8ZWOaIxoGck_rYOMK">
        <mxGraphModel dx="542" dy="464" grid="1" gridSize="10" guides="1" tooltips="1" connect="1" arrows="1" fold="1" page="1" pageScale="1" pageWidth="827" pageHeight="1169" background="#ffffff" math="0" shadow="0">
            <root>
                <mxCell id="0"/>
                <mxCell id="1" parent="0"/>
                <mxCell id="HCcWj127M-UJ6GwLGKlq-1" value="Evaluador" style="swimlane;fontStyle=1;align=center;verticalAlign=top;childLayout=stackLayout;horizontal=1;startSize=26;horizontalStack=0;resizeParent=1;resizeParentMax=0;resizeLast=0;collapsible=1;marginBottom=0;whiteSpace=wrap;html=1;" parent="1" vertex="1">
                    <mxGeometry x="120" y="280" width="240" height="160" as="geometry"/>
                </mxCell>
                <mxCell id="HCcWj127M-UJ6GwLGKlq-2" value="+ nombre: String&lt;div&gt;&lt;div&gt;&lt;div&gt;+ areasAptas: List&amp;lt;String&amp;gt;&lt;/div&gt;&lt;div&gt;&lt;br&gt;&lt;/div&gt;&lt;/div&gt;&lt;/div&gt;" style="text;strokeColor=none;fillColor=none;align=left;verticalAlign=top;spacingLeft=4;spacingRight=4;overflow=hidden;rotatable=0;points=[[0,0.5],[1,0.5]];portConstraint=eastwest;whiteSpace=wrap;html=1;" parent="HCcWj127M-UJ6GwLGKlq-1" vertex="1">
                    <mxGeometry y="26" width="240" height="64" as="geometry"/>
                </mxCell>
                <mxCell id="HCcWj127M-UJ6GwLGKlq-3" value="" style="line;strokeWidth=1;fillColor=none;align=left;verticalAlign=middle;spacingTop=-1;spacingLeft=3;spacingRight=3;rotatable=0;labelPosition=right;points=[];portConstraint=eastwest;strokeColor=inherit;" parent="HCcWj127M-UJ6GwLGKlq-1" vertex="1">
                    <mxGeometry y="90" width="240" height="8" as="geometry"/>
                </mxCell>
                <mxCell id="HCcWj127M-UJ6GwLGKlq-4" value="+ tieneConocimiento(String tema): boolean&lt;div&gt;&lt;br&gt;&lt;/div&gt;" style="text;strokeColor=none;fillColor=none;align=left;verticalAlign=top;spacingLeft=4;spacingRight=4;overflow=visible;rotatable=0;points=[[0,0.5],[1,0.5]];portConstraint=eastwest;whiteSpace=wrap;html=1;" parent="HCcWj127M-UJ6GwLGKlq-1" vertex="1">
                    <mxGeometry y="98" width="240" height="62" as="geometry"/>
                </mxCell>
                <mxCell id="HCcWj127M-UJ6GwLGKlq-5" value="Trabajo" style="swimlane;fontStyle=1;align=center;verticalAlign=top;childLayout=stackLayout;horizontal=1;startSize=26;horizontalStack=0;resizeParent=1;resizeParentMax=0;resizeLast=0;collapsible=1;marginBottom=0;whiteSpace=wrap;html=1;" parent="1" vertex="1">
                    <mxGeometry x="400" y="280" width="240" height="180" as="geometry"/>
                </mxCell>
                <mxCell id="HCcWj127M-UJ6GwLGKlq-6" value="+ nombre: String;&lt;div&gt;+ categoria: String;&lt;br&gt;&lt;div&gt;+ palabrasClave: List&amp;lt;String&amp;gt;&lt;/div&gt;&lt;/div&gt;" style="text;strokeColor=none;fillColor=none;align=left;verticalAlign=top;spacingLeft=4;spacingRight=4;overflow=hidden;rotatable=0;points=[[0,0.5],[1,0.5]];portConstraint=eastwest;whiteSpace=wrap;html=1;" parent="HCcWj127M-UJ6GwLGKlq-5" vertex="1">
                    <mxGeometry y="26" width="240" height="84" as="geometry"/>
                </mxCell>
                <mxCell id="HCcWj127M-UJ6GwLGKlq-7" value="" style="line;strokeWidth=1;fillColor=none;align=left;verticalAlign=middle;spacingTop=-1;spacingLeft=3;spacingRight=3;rotatable=0;labelPosition=right;points=[];portConstraint=eastwest;strokeColor=inherit;" parent="HCcWj127M-UJ6GwLGKlq-5" vertex="1">
                    <mxGeometry y="110" width="240" height="8" as="geometry"/>
                </mxCell>
                <mxCell id="HCcWj127M-UJ6GwLGKlq-8" value="&lt;div&gt;&lt;span style=&quot;background-color: initial;&quot;&gt;+ AsignarEvaluador(Evaluador): void&lt;/span&gt;&lt;/div&gt;&lt;div&gt;&lt;span style=&quot;background-color: initial;&quot;&gt;+ evaluadorApto(Evaluador): boolean&lt;/span&gt;&lt;/div&gt;" style="text;strokeColor=none;fillColor=none;align=left;verticalAlign=top;spacingLeft=4;spacingRight=4;overflow=hidden;rotatable=0;points=[[0,0.5],[1,0.5]];portConstraint=eastwest;whiteSpace=wrap;html=1;" parent="HCcWj127M-UJ6GwLGKlq-5" vertex="1">
                    <mxGeometry y="118" width="240" height="62" as="geometry"/>
                </mxCell>
                <mxCell id="9UrXFwLPOhh5BTaENJsO-6" style="edgeStyle=orthogonalEdgeStyle;rounded=0;orthogonalLoop=1;jettySize=auto;html=1;exitX=0.5;exitY=1;exitDx=0;exitDy=0;startArrow=diamondThin;startFill=1;endArrow=none;endFill=0;" parent="1" source="HCcWj127M-UJ6GwLGKlq-9" target="HCcWj127M-UJ6GwLGKlq-1" edge="1">
                    <mxGeometry relative="1" as="geometry"/>
                </mxCell>
                <mxCell id="9UrXFwLPOhh5BTaENJsO-7" style="edgeStyle=orthogonalEdgeStyle;rounded=0;orthogonalLoop=1;jettySize=auto;html=1;exitX=0.5;exitY=1;exitDx=0;exitDy=0;startArrow=diamondThin;startFill=1;endArrow=none;endFill=0;" parent="1" source="HCcWj127M-UJ6GwLGKlq-9" target="HCcWj127M-UJ6GwLGKlq-5" edge="1">
                    <mxGeometry relative="1" as="geometry"/>
                </mxCell>
                <mxCell id="HCcWj127M-UJ6GwLGKlq-9" value="Comite" style="swimlane;fontStyle=1;align=center;verticalAlign=top;childLayout=stackLayout;horizontal=1;startSize=26;horizontalStack=0;resizeParent=1;resizeParentMax=0;resizeLast=0;collapsible=1;marginBottom=0;whiteSpace=wrap;html=1;" parent="1" vertex="1">
                    <mxGeometry x="240" y="40" width="280" height="180" as="geometry"/>
                </mxCell>
                <mxCell id="HCcWj127M-UJ6GwLGKlq-10" value="+ evaluadores: List&amp;lt;Evaluador&amp;gt;&lt;div&gt;+ trabajos: List&amp;lt;Trabajo&amp;gt;&lt;/div&gt;&lt;div&gt;+ temasExperto List &amp;lt;String&amp;gt;&lt;/div&gt;" style="text;strokeColor=none;fillColor=none;align=left;verticalAlign=top;spacingLeft=4;spacingRight=4;overflow=hidden;rotatable=0;points=[[0,0.5],[1,0.5]];portConstraint=eastwest;whiteSpace=wrap;html=1;" parent="HCcWj127M-UJ6GwLGKlq-9" vertex="1">
                    <mxGeometry y="26" width="280" height="74" as="geometry"/>
                </mxCell>
                <mxCell id="HCcWj127M-UJ6GwLGKlq-11" value="" style="line;strokeWidth=1;fillColor=none;align=left;verticalAlign=middle;spacingTop=-1;spacingLeft=3;spacingRight=3;rotatable=0;labelPosition=right;points=[];portConstraint=eastwest;strokeColor=inherit;" parent="HCcWj127M-UJ6GwLGKlq-9" vertex="1">
                    <mxGeometry y="100" width="280" height="8" as="geometry"/>
                </mxCell>
                <mxCell id="HCcWj127M-UJ6GwLGKlq-12" value="&lt;div&gt;+ asignarEvaluador(Trabajo, Evaluador): void&lt;/div&gt;&lt;div&gt;+ calificacionEvaluador(Evaluador)&lt;/div&gt;&lt;div&gt;&lt;br&gt;&lt;/div&gt;" style="text;strokeColor=none;fillColor=none;align=left;verticalAlign=top;spacingLeft=4;spacingRight=4;overflow=hidden;rotatable=0;points=[[0,0.5],[1,0.5]];portConstraint=eastwest;whiteSpace=wrap;html=1;" parent="HCcWj127M-UJ6GwLGKlq-9" vertex="1">
                    <mxGeometry y="108" width="280" height="72" as="geometry"/>
                </mxCell>
                <mxCell id="9UrXFwLPOhh5BTaENJsO-5" style="edgeStyle=orthogonalEdgeStyle;rounded=0;orthogonalLoop=1;jettySize=auto;html=1;entryX=0.5;entryY=1;entryDx=0;entryDy=0;endArrow=block;endFill=0;endSize=8;" parent="1" source="9UrXFwLPOhh5BTaENJsO-1" target="HCcWj127M-UJ6GwLGKlq-5" edge="1">
                    <mxGeometry relative="1" as="geometry"/>
                </mxCell>
                <mxCell id="9UrXFwLPOhh5BTaENJsO-1" value="Poster" style="swimlane;fontStyle=1;align=center;verticalAlign=top;childLayout=stackLayout;horizontal=1;startSize=26;horizontalStack=0;resizeParent=1;resizeParentMax=0;resizeLast=0;collapsible=1;marginBottom=0;whiteSpace=wrap;html=1;" parent="1" vertex="1">
                    <mxGeometry x="400" y="500" width="240" height="130" as="geometry"/>
                </mxCell>
                <mxCell id="9UrXFwLPOhh5BTaENJsO-2" value="+&amp;nbsp;" style="text;strokeColor=none;fillColor=none;align=left;verticalAlign=top;spacingLeft=4;spacingRight=4;overflow=hidden;rotatable=0;points=[[0,0.5],[1,0.5]];portConstraint=eastwest;whiteSpace=wrap;html=1;" parent="9UrXFwLPOhh5BTaENJsO-1" vertex="1">
                    <mxGeometry y="26" width="240" height="34" as="geometry"/>
                </mxCell>
                <mxCell id="9UrXFwLPOhh5BTaENJsO-3" value="" style="line;strokeWidth=1;fillColor=none;align=left;verticalAlign=middle;spacingTop=-1;spacingLeft=3;spacingRight=3;rotatable=0;labelPosition=right;points=[];portConstraint=eastwest;strokeColor=inherit;" parent="9UrXFwLPOhh5BTaENJsO-1" vertex="1">
                    <mxGeometry y="60" width="240" height="8" as="geometry"/>
                </mxCell>
                <mxCell id="9UrXFwLPOhh5BTaENJsO-4" value="+ evaluadorApto(Evaluador): boolean" style="text;strokeColor=none;fillColor=none;align=left;verticalAlign=top;spacingLeft=4;spacingRight=4;overflow=hidden;rotatable=0;points=[[0,0.5],[1,0.5]];portConstraint=eastwest;whiteSpace=wrap;html=1;" parent="9UrXFwLPOhh5BTaENJsO-1" vertex="1">
                    <mxGeometry y="68" width="240" height="62" as="geometry"/>
                </mxCell>
                <mxCell id="2" value="Ejercicio 4" style="text;html=1;align=center;verticalAlign=middle;resizable=0;points=[];autosize=1;strokeColor=none;fillColor=none;fontFamily=Lucida Console;fontStyle=1" vertex="1" parent="1">
                    <mxGeometry x="324" width="100" height="30" as="geometry"/>
                </mxCell>
            </root>
        </mxGraphModel>
    </diagram>
</mxfile>